<svg xmlns="http://www.w3.org/2000/svg" viewBox="0 0 61 61" width="61" height="61">
	<style>
		tspan { white-space:pre }
		.shp0 { fill: #666d89 } 
		.shp1 { fill: none;stroke: #666d89;stroke-width: 2 } 
	</style>
	<g id="Services">
		<g id="Bulb">
			<path id="bulb" class="shp0" d="M31 13C24.92 13 20 17.92 20 24C20 28.03 23.69 32.3 25.03 36.05C27.03 41.65 26.81 45 31 45C35.25 45 34.96 41.67 36.97 36.08C38.32 32.32 42 28 42 24C42 17.92 37.08 13 31 13ZM33.59 40.18L28.63 40.8C28.46 40.28 28.27 39.68 28.04 38.9C28.03 38.89 28.03 38.88 28.03 38.87L34.22 38.1C34.13 38.39 34.03 38.7 33.95 38.98C33.82 39.43 33.7 39.82 33.59 40.18ZM27.74 37.91C27.55 37.31 27.35 36.67 27.12 36L34.89 36C34.76 36.36 34.64 36.72 34.54 37.06L27.74 37.91ZM31 43C29.99 43 29.52 42.88 29 41.75L33.24 41.22C32.63 42.87 32.18 43 31 43ZM35.67 34L26.34 34C25.84 32.92 25.24 31.84 24.65 30.78C23.35 28.45 22 26.03 22 24C22 19.04 26.04 15 31 15C35.96 15 40 19.04 40 24C40 26.02 38.65 28.45 37.34 30.79C36.76 31.85 36.17 32.93 35.67 34ZM31 18C27.69 18 25 20.69 25 24C25 24.28 25.22 24.5 25.5 24.5C25.78 24.5 26 24.28 26 24C26 21.24 28.24 19 31 19C31.28 19 31.5 18.78 31.5 18.5C31.5 18.22 31.28 18 31 18Z" />
			<path id="Ellipse" class="shp1" d="M30.5 1C46.79 1 60 14.21 60 30.5C60 46.79 46.79 60 30.5 60C14.21 60 1 46.79 1 30.5C1 14.21 14.21 1 30.5 1Z" />
		</g>
	</g>
</svg>